<svg class="diagram-root" style="background: #f5f6f6" xmlns="http://www.w3.org/2000/svg" xmlns:xlink="http://www.w3.org/1999/xlink"><style>.diagram-root { font-family: "Helvetica Neue", sans-serif; font-size: 12px; } .t { overflow: visible; } .t-bg { y: 40; fill: #fff;   } .th { fill: #005aa0;   } .tht { fill: #fff; font-size: 14px;  } .tf { fill: #323c46; overflow: visible; } .tf.pk { fill: #005aa0; font-weight: bold; } .tf.fk { font-weight: bold; } .ty { fill: #adb1b5; font-weight: normal; text-anchor: end; } .r { fill: transparent; stroke: #c3c3c3; stroke-width: 1; } .l { stroke: 1; } .i { fill: #c2c7ce; stroke: #c2c7ce; } .i.ix { fill: #afb3b6; stroke: #000; } .fa { fill: transparent; overflow: visible; } .fa .bg.hover { fill: #f7f7f7; } .c { cy: 12; r: 4; stroke: #d2d2dc; fill: #d2d2dc; } .hr { fill: transparent; stroke: #323c46; stroke-opacity: 0.035; stroke-width: 13; } .dc { stroke: #fa5a3c; fill: #fa5a3c; } .x { stroke: white; stroke-width: 1; } .hl .th { fill: #1b9bff; } .hl .tht {  } .fhl .bg { fill: #e7f4ff; } .fhls .bg {  } .r.hl { stroke: #1b9bff; } .dim { opacity: 0.25; }</style><g class="drawing-wrapper" transform="translate(-61.85714285714275, -64.57142857142858) scale(1,1)"><g class="rs"><path d="M 547.16 318.85714285714295 m -1, 0 a 1,1 0 1,0 2,0 a 1,1 0 1,0 -2,0 M 547.16 318.85714285714295 m -0.5, 0 a 0.5,0.5 0 1,0 1,0 a 0.5,0.5 0 1,0 -1,0  M547.16 318.85714285714295 L547.16 318.85714285714295 559.16 318.85714285714295 M 547.16 324.85714285714295 m -1, 0 a 1,1 0 1,0 2,0 a 1,1 0 1,0 -2,0 M 547.16 324.85714285714295 m -0.5, 0 a 0.5,0.5 0 1,0 1,0 a 0.5,0.5 0 1,0 -1,0  M547.16 324.85714285714295 L547.16 324.85714285714295 554.16 318.85714285714295 547.16 312.85714285714295 M 547.16 312.85714285714295 m -1, 0 a 1,1 0 1,0 2,0 a 1,1 0 1,0 -2,0 M 547.16 312.85714285714295 m -0.5, 0 a 0.5,0.5 0 1,0 1,0 a 0.5,0.5 0 1,0 -1,0  M559.16 318.85714285714295 C 609.16 318.85714285714295, 693.682 549.1428571428567, 418.29 549.1428571428567 M 406.29 549.1428571428567 m -1, 0 a 1,1 0 1,0 2,0 a 1,1 0 1,0 -2,0 M 406.29 549.1428571428567 m -0.5, 0 a 0.5,0.5 0 1,0 1,0 a 0.5,0.5 0 1,0 -1,0  M406.29 549.1428571428567 L406.29 549.1428571428567 418.29 549.1428571428567 M412.29 555.1428571428567 L412.29 555.1428571428567 412.29 543.1428571428567" id="h1139284389" class="r"></path><path d="M 367.99999999999847 343.85714285714295 m -1, 0 a 1,1 0 1,0 2,0 a 1,1 0 1,0 -2,0 M 367.99999999999847 343.85714285714295 m -0.5, 0 a 0.5,0.5 0 1,0 1,0 a 0.5,0.5 0 1,0 -1,0  M367.99999999999847 343.85714285714295 L367.99999999999847 343.85714285714295 355.99999999999847 343.85714285714295 M 367.99999999999847 349.85714285714295 m -1, 0 a 1,1 0 1,0 2,0 a 1,1 0 1,0 -2,0 M 367.99999999999847 349.85714285714295 m -0.5, 0 a 0.5,0.5 0 1,0 1,0 a 0.5,0.5 0 1,0 -1,0  M367.99999999999847 349.85714285714295 L367.99999999999847 349.85714285714295 360.99999999999847 343.85714285714295 367.99999999999847 337.85714285714295 M 367.99999999999847 337.85714285714295 m -1, 0 a 1,1 0 1,0 2,0 a 1,1 0 1,0 -2,0 M 367.99999999999847 337.85714285714295 m -0.5, 0 a 0.5,0.5 0 1,0 1,0 a 0.5,0.5 0 1,0 -1,0  M355.99999999999847 343.85714285714295 Q 338.54 343.85714285714295, 321.09 247.71 T 286.18 151.57142857142858 M 274.18 151.57142857142858 m -1, 0 a 1,1 0 1,0 2,0 a 1,1 0 1,0 -2,0 M 274.18 151.57142857142858 m -0.5, 0 a 0.5,0.5 0 1,0 1,0 a 0.5,0.5 0 1,0 -1,0  M274.18 151.57142857142858 L274.18 151.57142857142858 286.18 151.57142857142858 M280.18 157.57142857142858 L280.18 157.57142857142858 280.18 145.57142857142858" id="h1607168654" class="r"></path><path d="M 83.85714285714275 335.9999999999997 m -1, 0 a 1,1 0 1,0 2,0 a 1,1 0 1,0 -2,0 M 83.85714285714275 335.9999999999997 m -0.5, 0 a 0.5,0.5 0 1,0 1,0 a 0.5,0.5 0 1,0 -1,0  M83.85714285714275 335.9999999999997 L83.85714285714275 335.9999999999997 71.85714285714275 335.9999999999997 M 83.85714285714275 341.9999999999997 m -1, 0 a 1,1 0 1,0 2,0 a 1,1 0 1,0 -2,0 M 83.85714285714275 341.9999999999997 m -0.5, 0 a 0.5,0.5 0 1,0 1,0 a 0.5,0.5 0 1,0 -1,0  M83.85714285714275 341.9999999999997 L83.85714285714275 341.9999999999997 76.85714285714275 335.9999999999997 83.85714285714275 329.9999999999997 M 83.85714285714275 329.9999999999997 m -1, 0 a 1,1 0 1,0 2,0 a 1,1 0 1,0 -2,0 M 83.85714285714275 329.9999999999997 m -0.5, 0 a 0.5,0.5 0 1,0 1,0 a 0.5,0.5 0 1,0 -1,0  M71.85714285714275 335.9999999999997 C 21.857142857142748 335.9999999999997, 18.7714285714284 151.57142857142858, 76.99999999999999 151.57142857142858 M 88.99999999999999 151.57142857142858 m -1, 0 a 1,1 0 1,0 2,0 a 1,1 0 1,0 -2,0 M 88.99999999999999 151.57142857142858 m -0.5, 0 a 0.5,0.5 0 1,0 1,0 a 0.5,0.5 0 1,0 -1,0  M88.99999999999999 151.57142857142858 L88.99999999999999 151.57142857142858 76.99999999999999 151.57142857142858 M82.99999999999999 157.57142857142858 L82.99999999999999 157.57142857142858 82.99999999999999 145.57142857142858" id="h1397587031" class="r"></path><path d="M 83.85714285714275 360.9999999999997 m -1, 0 a 1,1 0 1,0 2,0 a 1,1 0 1,0 -2,0 M 83.85714285714275 360.9999999999997 m -0.5, 0 a 0.5,0.5 0 1,0 1,0 a 0.5,0.5 0 1,0 -1,0  M83.85714285714275 360.9999999999997 L83.85714285714275 360.9999999999997 71.85714285714275 360.9999999999997 M 83.85714285714275 366.9999999999997 m -1, 0 a 1,1 0 1,0 2,0 a 1,1 0 1,0 -2,0 M 83.85714285714275 366.9999999999997 m -0.5, 0 a 0.5,0.5 0 1,0 1,0 a 0.5,0.5 0 1,0 -1,0  M83.85714285714275 366.9999999999997 L83.85714285714275 366.9999999999997 76.85714285714275 360.9999999999997 83.85714285714275 354.9999999999997 M 83.85714285714275 354.9999999999997 m -1, 0 a 1,1 0 1,0 2,0 a 1,1 0 1,0 -2,0 M 83.85714285714275 354.9999999999997 m -0.5, 0 a 0.5,0.5 0 1,0 1,0 a 0.5,0.5 0 1,0 -1,0  M71.85714285714275 360.9999999999997 C 21.857142857142748 360.9999999999997, -62.9142857142856 549.1428571428567, 213.14285714285663 549.1428571428567 M 225.14285714285663 549.1428571428567 m -1, 0 a 1,1 0 1,0 2,0 a 1,1 0 1,0 -2,0 M 225.14285714285663 549.1428571428567 m -0.5, 0 a 0.5,0.5 0 1,0 1,0 a 0.5,0.5 0 1,0 -1,0  M225.14285714285663 549.1428571428567 L225.14285714285663 549.1428571428567 213.14285714285663 549.1428571428567 M219.14285714285663 555.1428571428567 L219.14285714285663 555.1428571428567 219.14285714285663 543.1428571428567" id="h2286254435" class="r"></path><path d="M 760.0000000000005 524.1428571428573 m -1, 0 a 1,1 0 1,0 2,0 a 1,1 0 1,0 -2,0 M 760.0000000000005 524.1428571428573 m -0.5, 0 a 0.5,0.5 0 1,0 1,0 a 0.5,0.5 0 1,0 -1,0  M760.0000000000005 524.1428571428573 L760.0000000000005 524.1428571428573 748.0000000000005 524.1428571428573 M 760.0000000000005 530.1428571428573 m -1, 0 a 1,1 0 1,0 2,0 a 1,1 0 1,0 -2,0 M 760.0000000000005 530.1428571428573 m -0.5, 0 a 0.5,0.5 0 1,0 1,0 a 0.5,0.5 0 1,0 -1,0  M760.0000000000005 530.1428571428573 L760.0000000000005 530.1428571428573 753.0000000000005 524.1428571428573 760.0000000000005 518.1428571428573 M 760.0000000000005 518.1428571428573 m -1, 0 a 1,1 0 1,0 2,0 a 1,1 0 1,0 -2,0 M 760.0000000000005 518.1428571428573 m -0.5, 0 a 0.5,0.5 0 1,0 1,0 a 0.5,0.5 0 1,0 -1,0  M748.0000000000005 524.1428571428573 Q 665.58 524.1428571428573, 583.15 536.64 T 418.29 549.1428571428567 M 406.29 549.1428571428567 m -1, 0 a 1,1 0 1,0 2,0 a 1,1 0 1,0 -2,0 M 406.29 549.1428571428567 m -0.5, 0 a 0.5,0.5 0 1,0 1,0 a 0.5,0.5 0 1,0 -1,0  M406.29 549.1428571428567 L406.29 549.1428571428567 418.29 549.1428571428567 M412.29 555.1428571428567 L412.29 555.1428571428567 412.29 543.1428571428567" id="h3177548053" class="r"></path><path d="M 766.4285714285713 317.00000000000057 m -1, 0 a 1,1 0 1,0 2,0 a 1,1 0 1,0 -2,0 M 766.4285714285713 317.00000000000057 m -0.5, 0 a 0.5,0.5 0 1,0 1,0 a 0.5,0.5 0 1,0 -1,0  M766.4285714285713 317.00000000000057 L766.4285714285713 317.00000000000057 754.4285714285713 317.00000000000057 M 766.4285714285713 323.00000000000057 m -1, 0 a 1,1 0 1,0 2,0 a 1,1 0 1,0 -2,0 M 766.4285714285713 323.00000000000057 m -0.5, 0 a 0.5,0.5 0 1,0 1,0 a 0.5,0.5 0 1,0 -1,0  M766.4285714285713 323.00000000000057 L766.4285714285713 323.00000000000057 759.4285714285713 317.00000000000057 766.4285714285713 311.00000000000057 M 766.4285714285713 311.00000000000057 m -1, 0 a 1,1 0 1,0 2,0 a 1,1 0 1,0 -2,0 M 766.4285714285713 311.00000000000057 m -0.5, 0 a 0.5,0.5 0 1,0 1,0 a 0.5,0.5 0 1,0 -1,0  M754.4285714285713 317.00000000000057 Q 670.39 317.00000000000057, 586.36 433.07 T 418.29 549.1428571428567 M 406.29 549.1428571428567 m -1, 0 a 1,1 0 1,0 2,0 a 1,1 0 1,0 -2,0 M 406.29 549.1428571428567 m -0.5, 0 a 0.5,0.5 0 1,0 1,0 a 0.5,0.5 0 1,0 -1,0  M406.29 549.1428571428567 L406.29 549.1428571428567 418.29 549.1428571428567 M412.29 555.1428571428567 L412.29 555.1428571428567 412.29 543.1428571428567" id="h3000826536" class="r"></path></g><g class="hrs"></g><g class="ts"><svg width="185.18" height="100" x="88.99999999999999" y="94.57142857142858" id="h475896179" class="t"><rect height="40" width="185.18" class="th"></rect><text x="13" y="25" class="tht">departments</text><rect height="60" width="185.18" class="t-bg" y="40"></rect><text x="13" y="61" class="tf fk">dept_no<tspan x="172.18" class="ty">VARCHAR(4)</tspan></text><text x="13" y="86" class="tf">dept_name<tspan x="172.18" class="ty">VARCHAR(30)</tspan></text></svg><svg width="179.16" height="150" x="83.85714285714275" y="278.9999999999997" id="h1676682957" class="t"><rect height="40" width="179.16" class="th"></rect><text x="13" y="25" class="tht">dept_manager</text><rect height="110" width="179.16" class="t-bg" y="40"></rect><text x="13" y="61" class="tf fk">dept_no<tspan x="166.16" class="ty">VARCHAR(4)</tspan></text><text x="13" y="86" class="tf fk">emp_no<tspan x="166.16" class="ty">INT</tspan></text><text x="13" y="111" class="tf">from_date<tspan x="166.16" class="ty">VARCHAR(30)</tspan></text><text x="13" y="136" class="tf">to_date<tspan x="166.16" class="ty">VARCHAR(30)</tspan></text></svg><svg width="179.16" height="150" x="367.99999999999847" y="261.85714285714295" id="h1090417462" class="t"><rect height="40" width="179.16" class="th"></rect><text x="13" y="25" class="tht">dept_emp</text><rect height="110" width="179.16" class="t-bg" y="40"></rect><text x="13" y="61" class="tf fk">emp_no<tspan x="166.16" class="ty">INT</tspan></text><text x="13" y="86" class="tf fk">dept_no<tspan x="166.16" class="ty">VARCHAR(4)</tspan></text><text x="13" y="111" class="tf">from_date<tspan x="166.16" class="ty">VARCHAR(30)</tspan></text><text x="13" y="136" class="tf">to_date<tspan x="166.16" class="ty">VARCHAR(30)</tspan></text></svg><svg width="179.16" height="150" x="766.4285714285713" y="260.00000000000057" id="h311790747" class="t"><rect height="40" width="179.16" class="th"></rect><text x="13" y="25" class="tht">titles</text><rect height="110" width="179.16" class="t-bg" y="40"></rect><text x="13" y="61" class="tf fk">emp_no<tspan x="166.16" class="ty">INT</tspan></text><text x="13" y="86" class="tf">title<tspan x="166.16" class="ty">VARCHAR(30)</tspan></text><text x="13" y="111" class="tf">from_date<tspan x="166.16" class="ty">VARCHAR(30)</tspan></text><text x="13" y="136" class="tf">to_date<tspan x="166.16" class="ty">VARCHAR(30)</tspan></text></svg><svg width="179.16" height="150" x="760.0000000000005" y="467.1428571428573" id="h2472833127" class="t"><rect height="40" width="179.16" class="th"></rect><text x="13" y="25" class="tht">salaries</text><rect height="110" width="179.16" class="t-bg" y="40"></rect><text x="13" y="61" class="tf fk">emp_no<tspan x="166.16" class="ty">INT</tspan></text><text x="13" y="86" class="tf">salary<tspan x="166.16" class="ty">INT</tspan></text><text x="13" y="111" class="tf">from_date<tspan x="166.16" class="ty">VARCHAR(30)</tspan></text><text x="13" y="136" class="tf">to_date<tspan x="166.16" class="ty">VARCHAR(30)</tspan></text></svg><svg width="181.15" height="200" x="225.14285714285663" y="492.1428571428566" id="h1639608377" class="t"><rect height="40" width="181.15" class="th"></rect><text x="13" y="25" class="tht">employees</text><rect height="160" width="181.15" class="t-bg" y="40"></rect><text x="13" y="61" class="tf fk">emp_no<tspan x="168.15" class="ty">INT</tspan></text><text x="13" y="86" class="tf">birth_date<tspan x="168.15" class="ty">VARCHAR(30)</tspan></text><text x="13" y="111" class="tf">first_name<tspan x="168.15" class="ty">VARCHAR(30)</tspan></text><text x="13" y="136" class="tf">last_name<tspan x="168.15" class="ty">VARCHAR(30)</tspan></text><text x="13" y="161" class="tf">gender<tspan x="168.15" class="ty">VARCHAR(1)</tspan></text><text x="13" y="186" class="tf">hire_date<tspan x="168.15" class="ty">VARCHAR(30)</tspan></text></svg></g></g><text class="qdbd-link" x="10" y="20">www.quickdatabasediagrams.com</text></svg>